<svg xmlns:xlink="http://www.w3.org/1999/xlink" xmlns="http://www.w3.org/2000/svg" class="css-ze2te4 css-qd6ojx" viewBox="0 0 88.88333741421869 85.75291457018096" width="110"  height="106" ><g transform="translate(-18.634203918032995, -20.206830469285734) scale(0.14836144389304665)" class="css-rrc1p5" fill="#2660C7"><path xmlns="http://www.w3.org/2000/svg" d="M516.9,241.4v94.8l24.2-9.7v-99.7c0-5-3-9.4-7.6-11.2l-195.5-78.5c-1.3-0.5-2.6-0.8-4.1-0.9c-0.1,0-0.1,0-0.1,0h-0.9  c-0.1,0-0.1,0-0.1,0c-1.4,0.1-2.8,0.3-4.1,0.9l-195.5,78.5c-4.6,1.9-7.6,6.3-7.6,11.2V702c0,4.1,2,7.8,5.4,10l137.8,2h64.7  c6.6-0.1,12-5.4,12-12.1V180c0-3.1,1.5-6,4.1-7.7c2.6-1.7,5.9-2.1,8.8-0.9L511,232.7C514.6,234.1,516.9,237.6,516.9,241.4z   M719.3,371.9l-117.3-47c-0.9-0.3-1.8-0.6-2.8-0.6h-0.8c-1,0-2,0.3-2.9,0.6l-117.3,47c-3.2,1.3-5.4,4.4-5.4,7.9v325.7  c0,4.8,3.9,8.6,8.6,8.6h117.4c4.7-0.1,8.5-3.9,8.5-8.6V359.2c0-3.1,1.5-6,4.1-7.7c1.6-1.1,3.4-1.6,5.3-1.6c1.2,0,2.4,0.3,3.5,0.7  l81.4,32.7c3.6,1.4,5.9,4.8,5.9,8.7v313.6c0,4.8,3.9,8.6,8.6,8.6c4.8,0,8.6-3.9,8.6-8.6V379.8C724.7,376.3,722.6,373.2,719.3,371.9z  " fill="#2660C7"></path></g></svg>