<?xml version="1.0" encoding="iso-8859-1"?>
<!-- Generator: Adobe Illustrator 19.0.0, SVG Export Plug-In . SVG Version: 6.00 Build 0)  -->
<svg version="1.1" id="Capa_1" xmlns="http://www.w3.org/2000/svg" xmlns:xlink="http://www.w3.org/1999/xlink" x="0px" y="0px"
	 viewBox="0 0 512 512" style="enable-background:new 0 0 512 512;" xml:space="preserve">
<g>
	<g>
		<path fill="white" d="M256,0C151.233,0,66,85.552,66,190.71c0,72.511,34.494,118.173,97.113,201.066c24.446,32.361,52.153,69.039,84.67,115.923
			c1.869,2.693,4.939,4.301,8.217,4.301s6.349-1.606,8.217-4.301c32.446-46.778,60.129-83.416,84.553-115.741
			C411.465,308.984,446,263.278,446,190.71C446,85.552,360.767,0,256,0z M332.813,379.901
			c-22.456,29.72-47.655,63.07-76.813,104.621c-29.223-41.648-54.45-75.043-76.93-104.802C117.104,297.69,86,256.516,86,190.71
			C86,96.58,162.262,20,256,20s170,76.58,170,170.71C426,256.572,394.857,297.788,332.813,379.901z"/>
	</g>
</g>
<g>
	<g>
		<path fill="white" d="M255.5,60c-71.682,0-130,58.317-130,130s58.318,130,130,130s130-58.317,130-130S327.182,60,255.5,60z M255.5,300
			c-60.654,0-110-49.346-110-110s49.346-110,110-110s110,49.346,110,110S316.154,300,255.5,300z"/>
	</g>
</g>
<g>
	<g>
		<path fill="white" d="M260.677,181.875C245.771,173.995,236,168.266,236,160.71c0-11.028,8.972-20,20-20s20,8.972,20,20c0,5.522,4.477,10,10,10
			s10-4.478,10-10c0-18.604-12.767-34.282-30-38.734V110.71c0-5.522-4.477-10-10-10s-10,4.478-10,10v11.266
			c-17.233,4.452-30,20.13-30,38.734c0,20.172,18.77,30.093,35.331,38.847C266.232,207.434,276,213.161,276,220.71
			c0,11.028-8.972,20-20,20s-20-8.972-20-20c0-5.522-4.477-10-10-10s-10,4.478-10,10c0,18.604,12.767,34.282,30,38.734v11.266
			c0,5.522,4.477,10,10,10s10-4.478,10-10v-11.266c17.233-4.452,30-20.13,30-38.734C296,200.546,277.234,190.626,260.677,181.875z"
			/>
	</g>
</g>
<g>
</g>
<g>
</g>
<g>
</g>
<g>
</g>
<g>
</g>
<g>
</g>
<g>
</g>
<g>
</g>
<g>
</g>
<g>
</g>
<g>
</g>
<g>
</g>
<g>
</g>
<g>
</g>
<g>
</g>
</svg>
