<?xml version="1.0" encoding="iso-8859-1"?>
<!-- Generator: Adobe Illustrator 22.1.0, SVG Export Plug-In . SVG Version: 6.00 Build 0)  -->
<svg version="1.1" xmlns="http://www.w3.org/2000/svg" xmlns:xlink="http://www.w3.org/1999/xlink" x="0px" y="0px"
	 viewBox="0 0 50 50" style="enable-background:new 0 0 50 50;" xml:space="preserve">
<g id="Layer_1">
	<path d="M44,1H6C3.243,1,1,3.243,1,6v38c0,2.757,2.243,5,5,5h38c2.757,0,5-2.243,5-5V6C49,3.243,46.757,1,44,1z M47,44
		c0,1.654-1.346,3-3,3H6c-1.654,0-3-1.346-3-3V6c0-1.654,1.346-3,3-3h38c1.654,0,3,1.346,3,3V44z"/>
</g>
<g>
</g>
</svg>
